<?xml version="1.0" standalone="no"?>
<!DOCTYPE svg PUBLIC "-//W3C//DTD SVG 20010904//EN"
 "http://www.w3.org/TR/2001/REC-SVG-20010904/DTD/svg10.dtd">
<svg version="1.0" xmlns="http://www.w3.org/2000/svg"
 width="1120.000000pt" height="1120.000000pt" viewBox="0 0 1120.000000 1120.000000"
 preserveAspectRatio="xMidYMid meet">
<metadata>
Created by potrace 1.14, written by Peter Selinger 2001-2017
</metadata>
<g transform="translate(0.000000,1120.000000) scale(0.100000,-0.100000)"
fill="#000000" stroke="none">
<path d="M4315 8528 c-33 -55 -76 -126 -96 -157 -30 -47 -410 -663 -571 -926
-27 -44 -53 -87 -59 -95 -5 -8 -76 -125 -159 -260 -82 -135 -157 -256 -167
-270 -10 -14 -29 -45 -42 -70 -13 -25 -27 -47 -30 -50 -4 -3 -26 -39 -51 -80
-24 -41 -47 -76 -52 -78 -4 -2 -8 -7 -8 -12 0 -5 -29 -56 -65 -114 l-66 -105
-35 20 c-20 11 -75 40 -122 66 -48 25 -91 49 -96 54 -6 5 -18 9 -28 9 -10 0
-18 4 -18 8 0 4 -15 15 -32 23 -51 23 -232 121 -242 130 -18 17 -33 9 -59 -28
-14 -21 -32 -47 -41 -58 -9 -11 -41 -54 -71 -95 -31 -41 -61 -82 -68 -90 -7
-8 -42 -55 -77 -105 -36 -49 -71 -97 -77 -105 -12 -15 -262 -351 -482 -650
-63 -85 -117 -157 -120 -160 -3 -3 -22 -27 -40 -55 -19 -27 -38 -52 -41 -55
-3 -3 -28 -36 -56 -75 -46 -66 -65 -91 -89 -119 -5 -6 -26 -34 -45 -61 -19
-28 -40 -56 -47 -63 -7 -7 -13 -16 -13 -20 0 -4 -10 -19 -23 -34 -13 -15 -31
-37 -40 -50 -58 -80 -189 -256 -202 -273 -9 -11 -73 -96 -141 -190 -69 -93
-134 -181 -144 -195 -10 -14 -48 -65 -85 -115 -36 -49 -73 -98 -81 -108 -8 -9
-14 -21 -14 -26 0 -5 -7 -11 -15 -15 -8 -3 -15 -11 -15 -17 0 -6 -17 -32 -39
-58 -21 -25 -43 -57 -50 -71 -11 -23 -11 -24 3 -6 8 10 37 42 63 70 27 28 80
87 118 130 39 44 86 96 105 116 19 21 60 65 90 99 30 34 75 84 100 110 25 27
79 86 120 132 41 46 86 95 100 110 14 15 51 56 82 91 31 35 71 80 90 99 18 20
67 73 108 119 41 46 86 95 100 110 14 15 54 59 90 99 36 40 79 88 95 105 17
18 64 70 105 116 41 45 89 97 105 115 40 42 175 191 198 219 10 11 37 42 60
67 23 25 78 85 122 133 44 48 93 102 108 119 l29 31 45 -50 c73 -79 194 -212
212 -232 21 -24 161 -178 228 -251 l52 -56 -4 -65 c-3 -36 -8 -87 -11 -115 -3
-27 -7 -66 -9 -85 -1 -19 -3 -35 -4 -35 -1 0 -4 -22 -6 -50 -8 -90 -16 -176
-30 -290 -3 -22 -7 -71 -10 -110 -4 -38 -8 -77 -10 -85 -2 -8 -7 -51 -11 -94
-3 -44 -8 -89 -10 -100 -2 -12 -7 -56 -10 -99 -3 -43 -7 -88 -10 -100 -2 -12
-7 -49 -9 -82 -9 -107 -14 -145 -21 -158 -5 -8 -4 -9 4 -2 6 6 26 53 45 105
20 52 51 138 70 190 97 262 221 601 239 650 11 30 40 109 65 175 25 66 46 125
48 130 1 6 6 19 10 30 15 37 63 168 140 380 42 116 80 219 85 230 5 11 18 45
28 75 25 72 182 498 195 530 6 14 11 27 12 30 4 18 29 87 34 95 3 6 6 15 7 20
2 6 21 60 44 120 22 61 42 115 44 120 2 6 8 24 15 40 6 17 16 44 22 60 6 17
15 39 19 50 25 64 60 161 60 167 0 3 8 23 17 44 9 22 18 44 19 49 2 9 34 101
51 145 3 8 7 21 9 28 1 8 5 17 9 20 4 4 4 -22 1 -58 -6 -62 -9 -90 -22 -197
-3 -26 -7 -72 -10 -102 -2 -31 -7 -72 -9 -91 -3 -19 -8 -60 -10 -90 -6 -61
-14 -142 -20 -180 -2 -14 -6 -61 -10 -105 -4 -43 -9 -83 -11 -87 -3 -4 -2 -8
3 -8 4 0 30 64 56 143 80 233 127 371 137 392 5 11 27 74 49 140 51 154 110
326 118 345 3 8 7 20 9 25 15 55 140 405 145 405 6 0 19 -29 74 -165 21 -49
45 -108 55 -130 10 -22 34 -80 55 -130 20 -49 45 -108 55 -130 10 -22 48 -114
85 -205 38 -91 72 -169 77 -174 4 -6 8 -15 8 -22 0 -6 10 -33 22 -60 12 -27
23 -51 23 -54 1 -3 9 -23 19 -45 10 -22 27 -62 37 -89 11 -27 29 -68 39 -91
10 -23 29 -66 40 -96 22 -56 33 -82 69 -161 11 -26 21 -50 21 -53 0 -3 9 -24
19 -48 11 -23 31 -71 46 -107 15 -36 33 -78 40 -95 7 -16 36 -86 65 -155 91
-221 100 -231 44 -50 -19 63 -37 124 -39 135 -3 11 -15 51 -27 90 -12 38 -22
75 -23 80 0 6 -11 44 -25 85 -13 41 -23 79 -22 83 1 4 -3 17 -9 28 -6 11 -12
30 -15 42 -4 22 -32 120 -42 147 -3 8 -7 24 -9 34 -2 11 -10 40 -19 65 -9 25
-17 53 -19 61 -4 19 -126 438 -160 550 -14 47 -27 92 -29 100 -1 8 -5 22 -8
30 -4 8 -10 29 -14 45 -4 17 -8 32 -9 35 0 3 -9 32 -20 65 -10 33 -18 64 -17
68 1 4 -3 17 -9 28 -6 11 -12 29 -14 39 -6 31 -75 264 -86 290 -25 58 34 -34
79 -125 8 -16 24 -42 34 -57 11 -16 16 -28 13 -28 -3 0 2 -12 13 -27 10 -16
40 -68 67 -118 26 -49 60 -112 75 -140 51 -93 202 -370 230 -420 15 -27 42
-77 60 -110 18 -33 37 -66 42 -72 6 -7 7 -13 3 -13 -5 0 -1 -8 7 -17 9 -10 39
-63 68 -118 29 -55 61 -113 70 -130 34 -60 79 -143 145 -265 38 -69 76 -139
85 -155 9 -17 37 -68 62 -115 25 -47 58 -107 73 -135 16 -27 36 -63 45 -80 9
-16 38 -70 65 -120 26 -49 67 -124 90 -165 23 -41 61 -111 85 -155 23 -44 54
-100 68 -125 13 -25 38 -70 54 -100 17 -30 35 -61 40 -67 6 -7 7 -13 3 -13 -5
0 -1 -8 7 -17 9 -10 37 -58 63 -108 27 -49 58 -108 70 -130 23 -42 72 -132
108 -200 12 -22 24 -42 27 -45 3 -3 18 -30 33 -60 15 -30 46 -86 67 -125 66
-120 93 -175 89 -179 -2 -2 -31 -7 -64 -10 -33 -4 -87 -11 -120 -16 -33 -5
-82 -12 -110 -16 -27 -3 -57 -7 -65 -9 -18 -3 -92 -15 -135 -21 -16 -2 -41 -6
-55 -9 -23 -4 -73 -12 -125 -20 -11 -2 -35 -6 -52 -9 -18 -3 -48 -8 -65 -12
-36 -6 -278 -50 -318 -58 -21 -4 -123 -24 -215 -42 -11 -2 -29 -6 -40 -8 -75
-16 -224 -46 -245 -50 -14 -2 -43 -9 -65 -14 -22 -6 -56 -13 -75 -16 -19 -3
-50 -10 -69 -15 -18 -6 -36 -10 -40 -9 -3 0 -8 0 -11 -2 -3 -1 -16 -4 -29 -6
-14 -2 -54 -11 -90 -20 -37 -9 -75 -17 -86 -20 -11 -2 -31 -6 -45 -9 -14 -3
-34 -7 -45 -9 -11 -2 -50 -11 -86 -20 -37 -8 -79 -17 -93 -20 -14 -3 -34 -7
-44 -10 -9 -3 -28 -7 -42 -10 -33 -5 -339 -73 -415 -91 -33 -8 -85 -20 -115
-25 -70 -14 -69 -14 -210 -45 -106 -23 -110 -24 -154 -31 -22 -3 -43 -7 -47
-9 -3 -2 -21 -7 -40 -10 -19 -3 -65 -12 -104 -20 -38 -8 -81 -16 -95 -19 -14
-2 -99 -18 -190 -35 -91 -17 -183 -33 -205 -37 -22 -3 -51 -7 -65 -10 -14 -2
-41 -7 -60 -10 -19 -2 -46 -7 -60 -9 -28 -5 -75 -12 -135 -20 -22 -3 -58 -7
-80 -10 -22 -3 -62 -8 -90 -11 -27 -3 -63 -7 -80 -9 -16 -2 -61 -6 -100 -10
-38 -3 -86 -8 -105 -10 -54 -6 -324 -17 -425 -17 -147 -1 -383 13 -480 29 -22
3 -51 7 -65 9 -31 3 -76 11 -170 30 -8 1 -43 10 -77 19 -35 9 -72 18 -83 20
-11 2 -26 7 -33 12 -6 4 -20 9 -31 10 -54 9 -280 111 -383 175 -35 21 -63 36
-63 35 0 -5 121 -100 192 -150 138 -98 369 -221 523 -279 63 -25 187 -69 200
-72 25 -6 102 -29 125 -37 14 -5 36 -11 50 -14 14 -2 43 -9 65 -14 61 -14 197
-42 225 -46 14 -2 54 -8 90 -14 135 -21 301 -37 498 -46 121 -6 479 -6 592 0
41 2 122 6 180 9 58 3 123 8 145 11 22 2 69 7 105 9 36 3 85 7 110 10 25 3 68
8 95 11 51 5 126 13 180 20 17 2 57 7 90 11 33 4 70 10 83 15 17 7 21 6 16 -3
-4 -6 -3 -8 3 -5 11 7 46 13 188 33 28 3 59 8 70 10 10 2 37 6 60 9 22 3 78
12 123 20 46 8 87 14 90 13 4 0 9 0 12 2 6 2 21 5 177 31 67 11 130 22 141 24
11 2 35 6 53 9 19 3 95 17 169 31 74 14 142 26 150 26 8 1 34 5 58 10 23 5 59
12 78 15 20 3 46 8 58 10 143 28 184 36 201 38 11 2 47 9 80 15 33 6 74 14 90
16 17 3 38 8 48 11 10 3 32 7 50 10 18 2 43 6 57 9 14 3 40 8 59 11 18 3 43 8
55 10 11 2 57 11 101 19 44 8 94 17 110 20 17 3 44 8 60 11 17 3 53 9 80 15
28 5 64 11 80 14 30 4 68 11 115 20 14 3 36 7 50 10 14 2 39 7 55 10 27 5 178
29 250 41 17 2 41 6 55 9 14 3 41 7 60 10 19 3 46 7 60 10 47 9 95 16 130 20
19 3 44 6 56 9 12 2 45 7 74 11 29 4 60 8 69 10 17 3 92 13 151 21 50 6 103
14 126 18 11 2 51 7 89 11 39 3 81 8 95 10 22 3 52 7 185 21 83 9 202 19 320
28 44 3 121 9 170 13 201 15 976 7 1148 -12 169 -19 195 -22 262 -31 71 -11
80 -12 80 -14 0 -1 16 -3 35 -5 43 -4 263 -49 342 -69 31 -9 67 -17 80 -20 12
-2 46 -12 73 -21 28 -9 59 -18 70 -20 20 -3 135 -42 205 -70 35 -13 70 -27 80
-30 57 -19 234 -101 360 -166 122 -63 138 -67 69 -17 -13 9 -33 24 -44 33 -11
9 -51 38 -90 65 -38 27 -75 54 -82 60 -7 5 -16 10 -21 10 -4 0 -17 8 -28 18
-10 9 -30 23 -44 30 -14 7 -45 26 -70 42 -25 16 -54 34 -65 40 -11 6 -38 21
-60 33 -22 13 -62 36 -90 51 -27 15 -59 35 -69 44 -11 10 -16 12 -12 5 3 -7
-33 8 -81 32 -125 62 -182 87 -318 140 -66 26 -129 51 -140 55 -25 11 -205 69
-231 75 -10 2 -57 16 -104 30 -47 14 -94 27 -105 29 -11 2 -67 15 -125 29 -58
14 -123 28 -145 32 -75 13 -90 16 -134 26 -24 5 -46 8 -48 5 -3 -3 -15 -1 -27
4 -13 4 -47 11 -77 14 -30 4 -65 9 -79 11 -30 6 -81 12 -175 20 -38 4 -82 9
-97 11 -25 4 -95 9 -278 19 -84 5 -588 5 -705 1 -126 -5 -343 -20 -455 -31
-36 -3 -85 -8 -110 -10 -54 -5 -119 -12 -180 -20 l-46 -6 -21 48 c-65 147
-118 264 -153 339 -22 47 -40 87 -40 89 0 2 -18 43 -41 92 -22 48 -47 104 -56
123 -21 47 -53 117 -102 223 -23 49 -41 90 -41 93 0 2 -18 43 -40 90 -22 47
-40 92 -40 100 0 8 -4 14 -10 14 -5 0 -13 12 -16 28 -4 15 -10 32 -14 37 -4 6
-22 43 -40 84 -17 40 -48 108 -67 150 -20 42 -52 114 -73 161 -21 47 -51 114
-67 150 -17 36 -47 103 -68 150 -21 47 -56 123 -79 170 l-41 85 1 200 c1 110
5 324 8 475 4 151 8 296 8 323 0 26 3 47 7 46 3 0 24 -26 47 -57 22 -31 141
-196 265 -365 123 -169 229 -316 234 -325 6 -9 12 -19 16 -22 3 -3 21 -27 40
-55 18 -27 36 -52 39 -55 3 -3 30 -39 60 -80 29 -41 70 -97 90 -125 20 -27 58
-79 83 -115 26 -36 50 -69 55 -75 4 -5 61 -84 126 -175 219 -304 235 -325 255
-347 12 -12 21 -25 21 -29 0 -4 17 -30 38 -58 21 -28 71 -96 111 -151 39 -55
79 -110 89 -121 9 -12 23 -30 30 -40 23 -36 112 -159 128 -179 8 -11 38 -51
65 -90 28 -38 58 -80 67 -92 9 -12 87 -118 172 -236 85 -118 156 -214 157
-213 2 2 -73 231 -166 509 l-169 507 20 67 c12 38 23 75 26 83 3 8 6 20 7 25
2 6 26 91 55 190 28 99 53 187 55 195 2 8 4 15 5 15 1 0 3 7 5 15 7 30 15 57
45 160 39 130 35 119 44 155 4 17 9 35 11 40 1 6 3 13 4 17 1 4 8 26 16 48 8
22 12 40 10 40 -2 0 3 16 11 35 8 19 13 36 13 37 -1 2 3 19 8 38 6 19 17 56
24 83 7 26 16 47 20 47 4 0 14 -12 24 -26 9 -14 22 -33 30 -42 8 -9 38 -46 67
-82 29 -36 56 -69 61 -75 20 -27 349 -442 359 -455 7 -8 44 -53 81 -100 37
-47 73 -92 80 -100 7 -8 37 -47 67 -85 30 -39 59 -75 65 -82 17 -20 25 -31
174 -218 78 -99 155 -196 171 -215 37 -46 79 -99 110 -140 14 -18 35 -44 48
-59 13 -14 35 -43 49 -63 14 -21 29 -38 34 -38 4 0 10 -8 13 -17 3 -10 18 -31
34 -48 15 -16 38 -43 50 -60 13 -16 34 -43 47 -60 14 -16 135 -169 271 -340
135 -170 259 -326 274 -345 151 -189 209 -263 235 -296 59 -74 66 -78 19 -9
-90 133 -109 160 -119 171 -11 13 -243 344 -260 371 -5 9 -15 24 -22 32 -7 9
-59 84 -117 166 -58 83 -130 186 -161 230 -31 44 -126 179 -210 300 -85 121
-158 225 -163 230 -4 6 -28 39 -52 75 -24 36 -47 67 -52 68 -4 2 -8 9 -8 15 0
6 -8 19 -17 29 -9 11 -44 59 -78 107 -33 49 -109 159 -170 245 -60 86 -147
209 -192 274 -45 64 -87 122 -92 129 -6 7 -11 15 -11 17 0 3 -7 14 -15 23 -8
10 -46 63 -84 118 -38 55 -73 105 -78 110 -5 6 -28 39 -52 75 -24 36 -48 67
-53 68 -4 2 -8 8 -8 12 0 8 -193 286 -220 317 -5 7 -10 16 -10 22 0 5 -4 11
-8 13 -4 2 -52 67 -107 146 l-100 144 -25 -29 c-14 -16 -45 -53 -70 -82 -100
-119 -123 -147 -143 -171 -12 -14 -57 -67 -100 -119 -43 -51 -83 -99 -90 -106
-7 -7 -22 -26 -34 -42 -12 -16 -33 -41 -45 -54 -21 -23 -91 -106 -128 -152 -8
-11 -20 -24 -25 -31 -6 -6 -33 -38 -60 -71 -28 -33 -56 -66 -63 -74 -8 -8 -38
-45 -69 -82 -30 -38 -59 -69 -63 -69 -4 0 -16 12 -26 26 -10 15 -26 34 -34 43
-18 18 -62 75 -140 176 -29 39 -56 72 -60 75 -3 3 -44 55 -90 115 -47 61 -89
115 -95 121 -5 6 -23 29 -40 50 -38 49 -139 177 -181 230 -18 23 -50 63 -70
90 -20 27 -40 51 -43 54 -3 3 -35 43 -71 90 -35 47 -72 92 -82 101 -10 9 -18
20 -18 23 0 7 -59 81 -107 136 -13 13 -23 28 -23 32 0 3 -7 13 -15 21 -15 16
-109 134 -158 200 -15 20 -32 37 -37 37 -8 0 -83 -60 -249 -198 -84 -70 -80
-69 -114 -31 -16 19 -46 54 -66 79 -20 25 -38 47 -41 50 -4 4 -69 82 -172 205
-9 11 -25 30 -35 41 -30 35 -159 190 -206 247 -18 21 -39 46 -48 55 -8 9 -60
71 -115 137 -54 66 -103 125 -109 131 -5 6 -21 25 -35 42 -14 18 -29 32 -35
32 -5 -1 -37 -46 -70 -102z"/>
<path d="M8507 3613 c-1 0 -63 -4 -137 -8 -74 -3 -157 -8 -185 -10 -27 -2 -88
-6 -135 -9 -47 -4 -94 -8 -105 -10 -11 -2 -54 -7 -95 -11 -41 -4 -86 -8 -100
-10 -14 -2 -52 -6 -85 -9 -33 -3 -71 -8 -85 -11 -14 -3 -45 -7 -70 -10 -25 -2
-54 -6 -66 -9 -12 -2 -45 -7 -75 -11 -30 -3 -65 -8 -79 -10 -14 -3 -38 -7 -55
-9 -132 -21 -204 -33 -245 -41 -48 -10 -151 -27 -182 -31 -10 -1 -20 -3 -23
-4 -8 -4 -16 -6 -75 -15 -30 -5 -57 -9 -60 -10 -3 -1 -23 -5 -45 -10 -22 -4
-49 -10 -60 -12 -26 -5 -65 -13 -90 -18 -11 -2 -54 -10 -95 -19 -41 -8 -86
-17 -100 -20 -27 -5 -110 -22 -150 -31 -14 -3 -38 -8 -55 -10 -16 -3 -38 -8
-47 -11 -17 -5 -45 -11 -85 -20 -13 -2 -34 -6 -48 -9 -14 -3 -37 -8 -52 -11
-16 -4 -37 -8 -48 -9 -11 -2 -20 -4 -20 -5 0 -1 -7 -3 -15 -5 -8 -1 -69 -14
-136 -29 -66 -15 -129 -28 -140 -30 -10 -3 -55 -12 -99 -21 -44 -9 -88 -19
-98 -21 -10 -2 -28 -6 -39 -10 -11 -3 -31 -8 -44 -10 -48 -8 -70 -12 -119 -24
-27 -6 -61 -14 -75 -16 -21 -4 -52 -10 -95 -20 -5 -1 -26 -5 -45 -9 -19 -3
-64 -12 -100 -20 -36 -8 -76 -17 -90 -19 -14 -3 -52 -10 -85 -17 -33 -6 -71
-13 -85 -14 -14 -2 -26 -4 -27 -5 -4 -3 -10 -5 -68 -15 -27 -5 -52 -9 -55 -10
-3 0 -27 -4 -53 -9 -27 -4 -59 -9 -70 -12 -12 -2 -35 -6 -52 -8 -16 -3 -45 -7
-62 -10 -64 -11 -89 -15 -138 -21 -27 -4 -57 -8 -65 -10 -8 -2 -39 -7 -69 -10
-30 -4 -62 -8 -72 -10 -10 -2 -53 -7 -96 -10 -43 -4 -87 -9 -98 -11 -11 -2
-60 -6 -110 -9 -49 -3 -110 -8 -135 -10 -57 -7 -447 -8 -520 -1 -30 3 -85 7
-121 11 -36 3 -76 8 -90 10 -13 3 -42 7 -64 10 -22 3 -75 14 -118 24 -43 10
-75 15 -70 11 29 -25 381 -152 445 -160 4 -1 22 -6 40 -11 18 -6 44 -12 58
-15 14 -2 36 -7 50 -10 14 -4 34 -8 45 -9 11 -2 31 -5 45 -8 48 -9 95 -18 130
-22 86 -12 108 -15 155 -19 28 -3 50 -6 50 -6 0 -14 696 -20 860 -8 223 17
336 27 375 33 14 2 54 6 90 9 36 4 74 8 85 10 11 2 45 7 76 10 31 4 65 8 75
10 11 2 48 7 84 11 36 4 67 8 70 10 3 2 30 6 60 9 30 4 66 8 80 11 68 12 87
15 129 21 25 4 55 8 66 10 40 8 191 34 229 40 21 3 48 8 60 11 11 2 32 6 46 8
28 4 124 22 156 29 12 2 37 7 55 10 19 3 59 10 89 16 30 6 66 13 80 15 14 2
36 7 50 10 14 3 36 7 50 10 14 2 39 7 55 9 17 3 41 8 55 11 14 3 61 12 104 20
43 8 87 17 96 20 10 3 32 7 49 10 17 2 38 6 48 9 10 3 34 7 53 10 19 3 69 12
110 21 41 9 91 18 110 21 19 3 51 9 70 14 19 5 55 12 80 15 25 3 61 10 80 15
19 5 49 11 65 13 29 5 124 22 175 32 27 5 357 63 403 71 15 2 39 6 55 9 112
18 171 27 197 30 17 2 44 6 60 9 17 3 53 8 80 12 28 3 57 7 65 9 26 5 155 21
238 30 29 4 62 8 74 10 12 3 58 7 103 10 45 3 93 8 106 10 13 3 62 7 109 10
47 3 108 8 135 10 218 19 775 19 925 1 19 -3 62 -7 95 -11 95 -9 137 -14 180
-21 22 -3 49 -7 60 -8 18 -3 65 -11 120 -23 11 -2 35 -6 54 -9 19 -2 37 -6 41
-9 4 -2 22 -7 41 -10 114 -19 389 -109 584 -189 39 -16 39 -16 18 1 -13 10
-62 38 -110 63 -48 25 -94 51 -101 58 -8 7 -18 10 -23 7 -5 -4 -9 -1 -9 4 0 6
-4 11 -10 11 -5 0 -51 20 -102 44 -51 24 -124 56 -163 71 -38 15 -83 33 -100
40 -41 17 -162 58 -267 90 -98 29 -100 30 -183 49 -33 8 -67 16 -75 19 -8 4
-28 8 -45 11 -52 9 -89 16 -130 26 -22 5 -69 14 -105 20 -36 5 -75 12 -88 14
-24 5 -181 24 -267 32 -27 3 -68 7 -90 9 -114 11 -729 27 -738 18z"/>
<path d="M11070 3220 c0 -5 5 -10 11 -10 5 0 7 5 4 10 -3 6 -8 10 -11 10 -2 0
-4 -4 -4 -10z"/>
<path d="M11147 2999 c7 -7 15 -10 18 -7 3 3 -2 9 -12 12 -14 6 -15 5 -6 -5z"/>
</g>
</svg>
